<?xml version="1.0" encoding="UTF-8" standalone="no"?>
<svg
   width="16px"
   height="16px"
   viewBox="0 0 16 16"
   version="1.1"
   id="svg65"
   sodipodi:docname="status.svg"
   inkscape:version="1.2 (dc2aedaf03, 2022-05-15)"
   xmlns:inkscape="http://www.inkscape.org/namespaces/inkscape"
   xmlns:sodipodi="http://sodipodi.sourceforge.net/DTD/sodipodi-0.dtd"
   xmlns="http://www.w3.org/2000/svg"
   xmlns:svg="http://www.w3.org/2000/svg">
  <defs
     id="defs69" />
  <sodipodi:namedview
     id="namedview67"
     pagecolor="#505050"
     bordercolor="#ffffff"
     borderopacity="1"
     inkscape:pageshadow="0"
     inkscape:pageopacity="0"
     inkscape:pagecheckerboard="1"
     showgrid="false"
     inkscape:zoom="50.75"
     inkscape:cx="4.955665"
     inkscape:cy="8.591133"
     inkscape:window-width="1920"
     inkscape:window-height="1017"
     inkscape:window-x="0"
     inkscape:window-y="0"
     inkscape:window-maximized="1"
     inkscape:current-layer="svg65"
     inkscape:showpageshadow="0"
     inkscape:deskcolor="#505050" />
  <path
     fill="#000000"
     fill-rule="evenodd"
     d="M7.0513157,1.68377223 C7.34140089,0.813516663 8.52958649,0.773959592 8.90131717,1.56510102 L8.9486823,1.68377223 L11.999,10.838 L13.0513157,7.68377223 C13.1750557,7.31255211 13.5021221,7.05117665 13.8839548,7.00672177 L13.999999,7 L14.999999,7 C15.5522837,7 15.999999,7.44771525 15.999999,8 C15.999999,8.51283584 15.6139588,8.93550716 15.1166201,8.99327227 L14.999999,9 L14.72,9 L12.9486823,14.3162278 C12.6585971,15.1864833 11.4704115,15.2260404 11.0986808,14.434899 L11.0513157,14.3162278 L7.999999,5.161 L5.9486823,11.3162278 C5.66748671,12.1598145 4.52796777,12.2312701 4.12404882,11.4837549 L4.07152231,11.3713907 L2.961,8.596 L2.89017501,8.6833128 C2.73101502,8.85332296 2.51533249,8.96455528 2.27945404,8.99286635 L2.16,9 L0.999999,9 C0.44771425,9 -1e-06,8.55228475 -1e-06,8 C-1e-06,7.48716416 0.38603919,7.06449284 0.883377875,7.00672773 L0.999999,7 L1.495,7 L2.07801673,5.61276791 C2.40786899,4.82740446 3.48655852,4.79910618 3.87548912,5.51555754 L3.92847569,5.62860932 L4.914,8.094 L7.0513157,1.68377223 Z"
     id="path63"
     style="fill:#ff2a2a;fill-opacity:1" />
  <path
     style="fill:#f55a5a;stroke-width:0.0197044;fill-opacity:1"
     d="M 11.73769,14.955632 C 11.489047,14.887282 11.254803,14.701757 11.140365,14.482542 11.106482,14.417636 10.38827,12.291872 9.5443377,9.7586207 8.7004055,7.2253695 8.0054465,5.1527094 7.9999846,5.1527094 c -0.00546,0 -0.4743679,1.3943349 -1.042013,3.0985221 -0.5676451,1.7041872 -1.0551474,3.1472905 -1.0833385,3.2068965 -0.066936,0.141526 -0.2756684,0.351788 -0.416505,0.419558 -0.3075553,0.147992 -0.6043244,0.148782 -0.902759,0.0024 -0.1809076,-0.08873 -0.326378,-0.23176 -0.4198489,-0.412793 -0.038974,-0.07549 -0.317624,-0.75556 -0.6192213,-1.5112783 L 2.9679403,8.581984 2.8844262,8.669144 C 2.7755346,8.7827898 2.6202544,8.8846562 2.4729064,8.9391084 2.3609976,8.9804638 2.3180219,8.9832104 1.6686959,8.990505 1.2044469,8.9957202 0.9388602,8.9908144 0.84704703,8.9753283 0.37840964,8.8962824 0.02064486,8.4877545 0.017642,8.0282392 0.01633364,7.8280248 0.03228706,7.7504893 0.10965374,7.5810506 0.23422676,7.308227 0.50071602,7.0978428 0.80281241,7.0338258 0.88175257,7.0170975 1.0522822,7.0052595 1.2216749,7.0047486 L 1.5073892,7.0038875 1.7718707,6.3689393 C 2.1308832,5.5070475 2.1497438,5.4686867 2.2862258,5.322787 2.5877844,5.0004199 3.0497657,4.9224973 3.4624317,5.1243961 3.5889708,5.1863058 3.7746522,5.3616536 3.8471306,5.4876855 3.8751764,5.536454 4.121428,6.1349762 4.3943565,6.8177348 4.6672847,7.5004934 4.8974225,8.0714581 4.9057736,8.0865452 4.9151167,8.1034246 5.335976,6.8679494 5.999867,4.8747226 6.5932674,3.093133 7.1064954,1.582382 7.1403736,1.5174982 7.4327511,0.9575354 8.2373196,0.83982334 8.6892039,1.2908972 c 0.059854,0.059747 0.136548,0.1617171 0.170431,0.226601 0.033883,0.064884 0.7520953,2.1906307 1.5960271,4.7238819 0.843932,2.5332512 1.538911,4.6059109 1.544397,4.6059109 0.0055,0 0.252563,-0.72931 0.549061,-1.6206892 0.296498,-0.8913793 0.561891,-1.6605912 0.589762,-1.7093596 0.113182,-0.1980452 0.324724,-0.3744995 0.547438,-0.4566357 0.108346,-0.039958 0.159728,-0.043587 0.722943,-0.051061 0.688432,-0.00914 0.806462,0.00308 1.020323,0.1055667 0.339407,0.1626566 0.55212,0.5035736 0.55212,0.8848883 0,0.2649472 -0.08435,0.4786437 -0.266629,0.6755326 -0.197611,0.2134437 -0.47029,0.3185084 -0.828432,0.3191992 l -0.177394,3.413e-4 -0.893999,2.6847294 c -0.4917,1.476601 -0.921725,2.737816 -0.955611,2.8027 -0.118054,0.226044 -0.349452,0.405622 -0.613336,0.475982 -0.123486,0.03293 -0.383772,0.03147 -0.508615,-0.0029 z"
     id="path332" />
</svg>
